REM DIRINDEX 1\2\4,1\2\5,1\2\6,1\2\7,1\3\8,1\3\9
REM DIRNAME cjc037,folder01,folder02,folder03,folder04,folder05,folder06,folder07,folder08
TITLE ""
FILE "Disc1Track03.mp3" MP3
  TRACK 01 AUDIO
    TITLE "0:"
    INDEX 01 00:00:00
  TRACK 02 AUDIO
    TITLE "4:cjc037_0135"
    INDEX 01 00:00:05
  TRACK 03 AUDIO
    TITLE "0:"
    INDEX 01 00:01:30
  TRACK 04 AUDIO
    TITLE "4:cjc037_0136"
    INDEX 01 00:02:28
  TRACK 05 AUDIO
    TITLE "0:"
    INDEX 01 00:03:70
  TRACK 06 AUDIO
    TITLE "5:cjc037_0137"
    INDEX 01 00:04:46
  TRACK 07 AUDIO
    TITLE "0:"
    INDEX 01 00:07:56
  TRACK 08 AUDIO
    TITLE "6:cjc037_0138"
    INDEX 01 00:11:17
  TRACK 09 AUDIO
    TITLE "0:"
    INDEX 01 00:13:59
  TRACK 10 AUDIO
    TITLE "7:cjc037_0139"
    INDEX 01 00:17:18
  TRACK 11 AUDIO
    TITLE "0:"
    INDEX 01 00:19:11
  TRACK 12 AUDIO
    TITLE "4:cjc037_0140"
    INDEX 01 00:21:45
  TRACK 13 AUDIO
    TITLE "0:"
    INDEX 01 00:23:06
  TRACK 14 AUDIO
    TITLE "5:cjc037_0141"
    INDEX 01 00:23:59
  TRACK 15 AUDIO
    TITLE "0:"
    INDEX 01 00:27:53
  TRACK 16 AUDIO
    TITLE "6:cjc037_0142"
    INDEX 01 00:31:12
  TRACK 17 AUDIO
    TITLE "0:"
    INDEX 01 00:34:22
  TRACK 18 AUDIO
    TITLE "7:cjc037_0143"
    INDEX 01 00:37:61
  TRACK 19 AUDIO
    TITLE "0:"
    INDEX 01 00:40:03
  TRACK 20 AUDIO
    TITLE "4:cjc037_0144"
    INDEX 01 00:42:35
  TRACK 21 AUDIO
    TITLE "0:"
    INDEX 01 00:44:03
  TRACK 22 AUDIO
    TITLE "5:cjc037_0145"
    INDEX 01 00:44:50
  TRACK 23 AUDIO
    TITLE "0:"
    INDEX 01 00:48:12
  TRACK 24 AUDIO
    TITLE "6:cjc037_0146"
    INDEX 01 00:51:52
  TRACK 25 AUDIO
    TITLE "0:"
    INDEX 01 00:54:58
  TRACK 26 AUDIO
    TITLE "7:cjc037_0147"
    INDEX 01 00:58:17
  TRACK 27 AUDIO
    TITLE "0:"
    INDEX 01 01:00:39
  TRACK 28 AUDIO
    TITLE "4:cjc037_0148"
    INDEX 01 01:02:73
  TRACK 29 AUDIO
    TITLE "0:"
    INDEX 01 01:04:39
  TRACK 30 AUDIO
    TITLE "5:cjc037_0149"
    INDEX 01 01:05:17
  TRACK 31 AUDIO
    TITLE "0:"
    INDEX 01 01:09:26
  TRACK 32 AUDIO
    TITLE "6:cjc037_0150"
    INDEX 01 01:12:60
  TRACK 33 AUDIO
    TITLE "0:"
    INDEX 01 01:16:56
  TRACK 34 AUDIO
    TITLE "7:cjc037_0151"
    INDEX 01 01:20:18
  TRACK 35 AUDIO
    TITLE "0:"
    INDEX 01 01:23:05
  TRACK 36 AUDIO
    TITLE "4:cjc037_0152"
    INDEX 01 01:25:41
  TRACK 37 AUDIO
    TITLE "0:"
    INDEX 01 01:27:10
  TRACK 38 AUDIO
    TITLE "5:cjc037_0153"
    INDEX 01 01:27:61
  TRACK 39 AUDIO
    TITLE "0:"
    INDEX 01 01:31:00
  TRACK 40 AUDIO
    TITLE "6:cjc037_0154"
    INDEX 01 01:34:32
  TRACK 41 AUDIO
    TITLE "0:"
    INDEX 01 01:37:05
  TRACK 42 AUDIO
    TITLE "7:cjc037_0155"
    INDEX 01 01:40:36
  TRACK 43 AUDIO
    TITLE "0:"
    INDEX 01 01:42:45
  TRACK 44 AUDIO
    TITLE "4:cjc037_0156"
    INDEX 01 01:45:02
  TRACK 45 AUDIO
    TITLE "0:"
    INDEX 01 01:46:45
  TRACK 46 AUDIO
    TITLE "5:cjc037_0157"
    INDEX 01 01:47:23
  TRACK 47 AUDIO
    TITLE "0:"
    INDEX 01 01:51:54
  TRACK 48 AUDIO
    TITLE "6:cjc037_0158"
    INDEX 01 01:55:15
  TRACK 49 AUDIO
    TITLE "0:"
    INDEX 01 01:58:03
  TRACK 50 AUDIO
    TITLE "7:cjc037_0159"
    INDEX 01 02:01:39
  TRACK 51 AUDIO
    TITLE "0:"
    INDEX 01 02:03:45
  TRACK 52 AUDIO
    TITLE "4:cjc037_0160"
    INDEX 01 02:06:03
  TRACK 53 AUDIO
    TITLE "0:"
    INDEX 01 02:07:22
  TRACK 54 AUDIO
    TITLE "5:cjc037_0161"
    INDEX 01 02:08:00
  TRACK 55 AUDIO
    TITLE "0:"
    INDEX 01 02:12:11
  TRACK 56 AUDIO
    TITLE "6:cjc037_0162"
    INDEX 01 02:15:47
  TRACK 57 AUDIO
    TITLE "0:"
    INDEX 01 02:19:23
  TRACK 58 AUDIO
    TITLE "7:cjc037_0163"
    INDEX 01 02:22:56
  TRACK 59 AUDIO
    TITLE "0:"
    INDEX 01 02:25:33
  TRACK 60 AUDIO
    TITLE "4:cjc037_0164"
    INDEX 01 02:27:67
  TRACK 61 AUDIO
    TITLE "0:"
    INDEX 01 02:29:31
  TRACK 62 AUDIO
    TITLE "5:cjc037_0165"
    INDEX 01 02:30:09
  TRACK 63 AUDIO
    TITLE "0:"
    INDEX 01 02:33:46
  TRACK 64 AUDIO
    TITLE "6:cjc037_0166"
    INDEX 01 02:37:03
  TRACK 65 AUDIO
    TITLE "0:"
    INDEX 01 02:39:27
  TRACK 66 AUDIO
    TITLE "7:cjc037_0167"
    INDEX 01 02:42:61
  TRACK 67 AUDIO
    TITLE "0:"
    INDEX 01 02:44:44
  TRACK 68 AUDIO
    TITLE "4:cjc037_0168"
    INDEX 01 02:47:02
  TRACK 69 AUDIO
    TITLE "0:"
    INDEX 01 02:48:36
  TRACK 70 AUDIO
    TITLE "5:cjc037_0169"
    INDEX 01 02:49:16
  TRACK 71 AUDIO
    TITLE "0:"
    INDEX 01 02:52:03
  TRACK 72 AUDIO
    TITLE "6:cjc037_0170"
    INDEX 01 02:55:38
  TRACK 73 AUDIO
    TITLE "0:"
    INDEX 01 02:57:70
  TRACK 74 AUDIO
    TITLE "7:cjc037_0171"
    INDEX 01 03:01:27
  TRACK 75 AUDIO
    TITLE "0:"
    INDEX 01 03:03:22
  TRACK 76 AUDIO
    TITLE "4:cjc037_0172"
    INDEX 01 03:05:56
  TRACK 77 AUDIO
    TITLE "0:"
    INDEX 01 03:07:24
  TRACK 78 AUDIO
    TITLE "5:cjc037_0173"
    INDEX 01 03:08:00
  TRACK 79 AUDIO
    TITLE "0:"
    INDEX 01 03:10:52
  TRACK 80 AUDIO
    TITLE "6:cjc037_0174"
    INDEX 01 03:14:10
  TRACK 81 AUDIO
    TITLE "0:"
    INDEX 01 03:17:05
  TRACK 82 AUDIO
    TITLE "7:cjc037_0175"
    INDEX 01 03:20:38
  TRACK 83 AUDIO
    TITLE "0:"
    INDEX 01 03:22:65
  TRACK 84 AUDIO
    TITLE "4:cjc037_0176"
    INDEX 01 03:25:22
  TRACK 85 AUDIO
    TITLE "0:"
    INDEX 01 03:26:68
  TRACK 86 AUDIO
    TITLE "5:cjc037_0177"
    INDEX 01 03:27:44
  TRACK 87 AUDIO
    TITLE "0:"
    INDEX 01 03:31:07
  TRACK 88 AUDIO
    TITLE "6:cjc037_0178"
    INDEX 01 03:34:40
  TRACK 89 AUDIO
    TITLE "0:"
    INDEX 01 03:37:37
  TRACK 90 AUDIO
    TITLE "7:cjc037_0179"
    INDEX 01 03:40:66
  TRACK 91 AUDIO
    TITLE "0:"
    INDEX 01 03:43:08
  TRACK 92 AUDIO
    TITLE "4:cjc037_0180"
    INDEX 01 03:45:40
  TRACK 93 AUDIO
    TITLE "0:"
    INDEX 01 03:47:02
  TRACK 94 AUDIO
    TITLE "5:cjc037_0181"
    INDEX 01 03:47:55
  TRACK 95 AUDIO
    TITLE "0:"
    INDEX 01 03:51:72
  TRACK 96 AUDIO
    TITLE "6:cjc037_0182"
    INDEX 01 03:55:31
  TRACK 97 AUDIO
    TITLE "0:"
    INDEX 01 03:58:64
  TRACK 98 AUDIO
    TITLE "7:cjc037_0183"
    INDEX 01 04:02:21
  TRACK 99 AUDIO
    TITLE "0:"
    INDEX 01 04:04:63
  TRACK 100 AUDIO
    TITLE "4:cjc037_0184"
    INDEX 01 04:07:18
  TRACK 101 AUDIO
    TITLE "0:"
    INDEX 01 04:08:59
  TRACK 102 AUDIO
    TITLE "5:cjc037_0185"
    INDEX 01 04:09:33
  TRACK 103 AUDIO
    TITLE "0:"
    INDEX 01 04:13:66
  TRACK 104 AUDIO
    TITLE "6:cjc037_0186"
    INDEX 01 04:17:26
  TRACK 105 AUDIO
    TITLE "0:"
    INDEX 01 04:20:56
  TRACK 106 AUDIO
    TITLE "7:cjc037_0187"
    INDEX 01 04:24:19
  TRACK 107 AUDIO
    TITLE "0:"
    INDEX 01 04:26:65
